#!OML:ASF E:\emotionWalksFemale\Project 1\Capture day 1\Session 1\Female1.ASF
:FULLY-SPECIFIED
:DEGREES
1445
root -6.65047 15.4254 14.6434 362.908 -14.2356 350.994
lowerback 8.31105 3.46361 6.23996
upperback -3.0769 5.45679 1.48204
thorax -7.4894 2.40526 -2.70201
lowerneck -9.17018 8.09791 3.35765
upperneck 17.0225 10.6019 -0.193168
head 6.89769 5.30323 0.32077
rclavicle 8.9304e-014 3.89618e-014
rhumerus -29.4593 8.66926 -73.8005
rradius 34.8369
rwrist 14.8081
rhand -6.62239 -51.4864
rfingers 7.12502
rthumb 19.234 -80.5552
lclavicle 8.9304e-014 3.89618e-014
lhumerus -52.6305 10.4388 73.5662
lradius 35.6692
lwrist -13.8519
lhand -2.77316 -31.1614
lfingers 7.12502
lthumb 22.9317 -2.50515
rfemur 17.4542 10.8862 36.0698
rtibia -5.08889e-014
rfoot -11.5071 -37.8579
rtoes -1.37927
lfemur -30.8362 -8.8267 -15.7674
ltibia 30.8073
lfoot -21.3512 20.7076
ltoes 4.17337
1446
root -6.67576 15.4166 14.7728 363.17 -14.1493 351.033
lowerback 8.16017 3.56613 6.228
upperback -3.21763 5.58702 1.4611
thorax -7.54177 2.46488 -2.72817
lowerneck -9.24345 8.16841 3.49989
upperneck 17.2307 10.692 -0.263221
head 6.99179 5.34778 0.294916
rclavicle -7.92654e-014 -2.78299e-014
rhumerus -29.1383 8.47982 -73.8175
rradius 34.8485
rwrist 15.0225
rhand -6.38619 -51.7768
rfingers 7.12502
rthumb 19.4611 -80.8229
lclavicle -7.92654e-014 -2.78299e-014
lhumerus -53.307 10.4965 73.4917
lradius 36.5145
lwrist -14.1735
lhand -2.25779 -31.2549
lfingers 7.12502
lthumb 23.4261 -2.66086
rfemur 17.6141 10.4568 35.9477
rtibia 3.18055e-014
rfoot -10.6419 -37.5103
rtoes -3.67147
lfemur -31.0608 -11.6058 -14.6122
ltibia 28.9904
lfoot -23.6455 23.7124
ltoes 7.02177
1447
root -6.69649 15.4144 14.9036 363.423 -14.0881 351
lowerback 8.1054 3.61023 6.31219
upperback -3.38654 5.66043 1.45133
thorax -7.67801 2.48796 -2.79681
lowerneck -9.25845 8.31532 3.729
upperneck 17.4313 10.8739 -0.327101
head 7.08047 5.44285 0.26383
rclavicle -6.43565e-015 1.15295e-014
rhumerus -28.7963 8.34157 -73.962
rradius 34.7744
rwrist 15.2118
rhand -6.17937 -51.9303
rfingers 7.12502
rthumb 19.6599 -80.9562
lclavicle -6.43565e-015 1.15295e-014
lhumerus -53.0231 10.1837 73.6866
lradius 35.4436
lwrist -13.8961
lhand -2.17179 -31.5079
lfingers 7.12502
lthumb 23.5086 -2.92443
rfemur 17.8126 10.052 35.8812
rtibia 2.8625e-014
rfoot -9.45525 -36.9947
rtoes -6.59213
lfemur -31.4108 -15.2246 -12.9582
ltibia 27.3999
lfoot -26.7144 27.0466
ltoes 12.8885
1448
root -6.71255 15.414 15.0376 363.571 -14.09 351.061
lowerback 8.00361 3.67587 6.30592
upperback -3.45784 5.74253 1.44065
thorax -7.68837 2.52672 -2.80984
lowerneck -9.18868 8.39217 3.65814
upperneck 17.2837 10.9733 -0.234972
head 7.01281 5.49586 0.305333
rclavicle -2.65874e-014 -3.18055e-015
rhumerus -28.3699 8.20068 -74.0714
rradius 34.7239
rwrist 15.2463
rhand -6.04386 -51.857
rfingers 7.12502
rthumb 19.7902 -80.8695
lclavicle -2.65874e-014 -3.18055e-015
lhumerus -53.0183 10.2291 73.689
lradius 34.9567
lwrist -13.9798
lhand -1.96101 -31.8976
lfingers 7.12502
lthumb 23.7108 -3.34013
rfemur 18.1207 9.68917 35.6967
rtibia -4.77083e-014
rfoot -8.35353 -36.6047
rtoes -9.61049
lfemur -31.9043 -19.5831 -11.0195
ltibia 26.1035
lfoot -31.6591 30.0938
ltoes 24.8715
1449
root -6.73165 15.4072 15.1759 363.616 -14.126 351.175
lowerback 7.81407 3.78265 6.21215
upperback -3.33962 5.85049 1.41973
thorax -7.44744 2.59614 -2.77287
lowerneck -9.49944 8.41673 3.38534
upperneck 17.151 11.0099 -0.0894753
head 6.99947 5.50664 0.406343
rclavicle 9.71125e-014 2.42517e-014
rhumerus -27.7975 7.95526 -74.1473
rradius 34.7661
rwrist 15.1811
rhand -6.48108 -51.5637
rfingers 7.12502
rthumb 19.3698 -80.619
lclavicle 9.71125e-014 2.42517e-014
lhumerus -52.9447 10.2381 73.7897
lradius 35.0303
lwrist -14.0212
lhand -1.42496 -31.8405
lfingers 7.12502
lthumb 24.2248 -3.35067
rfemur 18.5571 9.33176 35.4734
rtibia -6.67916e-014
rfoot -7.68914 -36.2574
rtoes -11.513
lfemur -32.4537 -23.9569 -9.06001
ltibia 25.1134
lfoot -36.8666 32.925
ltoes 32.4315
1450
root -6.7512 15.3996 15.3167 363.661 -14.2381 351.233
lowerback 7.65674 3.90262 6.15853
upperback -3.28523 5.98619 1.38155
thorax -7.28679 2.67215 -2.78396
lowerneck -9.59337 8.44473 3.31934
upperneck 17.0512 11.0332 0.0205388
head 6.97335 5.52297 0.454407
rclavicle -4.48694e-014 -1.51076e-014
rhumerus -27.5296 7.77321 -74.4056
rradius 34.9802
rwrist 15.1395
rhand -6.82318 -51.4559
rfingers 7.12502
rthumb 19.0409 -80.5438
lclavicle -4.48694e-014 -1.51076e-014
lhumerus -52.9082 10.382 73.6636
lradius 35.0092
lwrist -14.3512
lhand -0.691999 -31.2611
lfingers 7.12502
lthumb 24.9274 -2.86677
rfemur 19.0089 9.05134 35.2892
rtibia 1.27222e-014
rfoot -7.44658 -35.7976
rtoes -11.9732
lfemur -33.2169 -28.4424 -6.86805
ltibia 24.484
lfoot -42.8577 35.5163
ltoes 37.6631
1451
root -6.76824 15.3895 15.4559 363.72 -14.434 351.355
lowerback 7.54179 4.0087 6.02362
upperback -3.47754 6.1107 1.30947
thorax -7.42172 2.72959 -2.79952
lowerneck -9.01826 8.52224 3.63427
upperneck 17.0183 11.1189 -0.0274969
head 6.88643 5.58551 0.371421
rclavicle 4.27884e-014 -2.3059e-014
rhumerus -27.7579 7.70058 -74.8274
rradius 35.2648
rwrist 15.2802
rhand -6.35583 -51.6853
rfingers 7.12502
rthumb 19.4903 -80.7285
lclavicle 4.27884e-014 -2.3059e-014
lhumerus -53.466 10.4653 73.2523
lradius 34.9962
lwrist -14.8101
lhand -0.767153 -31.2953
lfingers 7.12502
lthumb 24.8554 -2.891
rfemur 19.4228 8.85926 35.024
rtibia -6.36111e-014
rfoot -6.75739 -35.5406
rtoes -12.2442
lfemur -34.5284 -33.6445 -4.10194
ltibia 24.035
lfoot -50.6698 37.9368
ltoes 42.7018
